# xmcd CD database file
#
# Track frame offsets:
#	150
#	26377
#	45487
#	67772
#	88532
#	109802
#	130180
#	148407
#
# Disc length: 2281 seconds
#
# Revision: 0
# Processed by: cddbd v1.4PL0 Copyright (c) Steve Scherf et al.
# Submitted via: Feurio! 1.63 - http://www.feurio.com
#
DISCID=6508e708
DTITLE=Patti Austin - Havana Candy
DYEAR=1900
DGENRE=
TTITLE0=That's Enough For Me
TTITLE1=Little Baby
TTITLE2=I Just Want To Know
TTITLE3=Havana Candy
TTITLE4=Golden Oldies
TTITLE5=I Need Somebody
TTITLE6=We're In Love
TTITLE7=Lost In The Stars
EXTD=
EXTT0=
EXTT1=
EXTT2=
EXTT3=
EXTT4=
EXTT5=
EXTT6=
EXTT7=
PLAYORDER=
